<?xml version="1.0" encoding="UTF-8"?>
<svg version="1.1" xmlns="http://www.w3.org/2000/svg" width="169" height="167">
<path d="M0 0 C1.64280715 -0.00067548 3.28561421 -0.00164752 4.92842102 -0.00289917 C8.3498328 -0.00436343 11.77121826 -0.00226201 15.19262695 0.00244141 C19.55660173 0.00815155 23.92051516 0.00484346 28.28448772 -0.00113106 C31.66899572 -0.00475959 35.05348937 -0.00358781 38.43799782 -0.00100327 C40.04659851 -0.00034104 41.65520055 -0.00113752 43.26379967 -0.00348282 C65.20786755 -0.02847702 65.20786755 -0.02847702 69.62109375 3.3203125 C76.42881629 11.85961603 76.42881629 11.85961603 76.23828125 16.8828125 C75.0034345 22.01428678 71.735879 24.9208698 67.73828125 28.1328125 C67.07957031 28.68066406 66.42085938 29.22851562 65.7421875 29.79296875 C62.65858898 32.23941046 60.07604382 34.0030241 56.36328125 35.4296875 C52.22502617 37.1392545 49.69995054 39.85438713 46.73828125 43.1328125 C42.67091007 47.63519664 39.41921992 49.94626416 33.73828125 52.1328125 C32.38519812 53.44609907 31.04958047 54.77780331 29.73828125 56.1328125 C27.23828125 57.2578125 27.23828125 57.2578125 24.73828125 58.1328125 C21.46730051 59.53466139 20.81648022 60.01551405 18.73828125 63.1328125 C14.24368601 62.43053199 9.83218084 61.13193637 5.73828125 59.1328125 C5.40828125 58.4728125 5.07828125 57.8128125 4.73828125 57.1328125 C3.78953125 56.6584375 2.84078125 56.1840625 1.86328125 55.6953125 C-1.26171875 54.1328125 -1.26171875 54.1328125 -2.69921875 52.6328125 C-4.33024823 50.86804732 -4.33024823 50.86804732 -7.43359375 49.953125 C-11.92698077 48.08102504 -14.79198194 45.01601427 -18.07421875 41.5078125 C-21.77760446 37.31703426 -21.77760446 37.31703426 -26.26171875 34.1328125 C-26.26171875 33.4728125 -26.26171875 32.8128125 -26.26171875 32.1328125 C-27.08671875 32.2771875 -27.91171875 32.4215625 -28.76171875 32.5703125 C-34.02894245 31.91190954 -36.57215597 28.73583969 -40.26171875 25.1328125 C-41.06609375 24.5140625 -41.87046875 23.8953125 -42.69921875 23.2578125 C-44.81342512 20.38249184 -45.36500911 17.92143659 -45.62109375 14.3828125 C-45.1689671 11.55210649 -44.32856619 10.64219077 -42.19921875 8.7578125 C-39.06670203 6.49439723 -35.78148886 4.73270801 -32.26171875 3.1328125 C-31.27171875 2.4728125 -30.28171875 1.8128125 -29.26171875 1.1328125 C-19.71387952 -0.55850425 -9.67354792 -0.01416579 0 0 Z " fill="#101306" transform="translate(70.26171875,57.8671875)"/>
<path d="M0 0 C8.33333333 0 16.66666667 0 25 0 C25 1.32 25 2.64 25 4 C25.66 4 26.32 4 27 4 C27 2.68 27 1.36 27 0 C32.61 0 38.22 0 44 0 C44 0.66 44 1.32 44 2 C44.66 2 45.32 2 46 2 C46 1.34 46 0.68 46 0 C47.32 0 48.64 0 50 0 C50.226875 0.70125 50.45375 1.4025 50.6875 2.125 C51.84224089 4.65443242 52.84107539 6.13068041 54.625 8.1875 C57 11 57 11 57 13 C44.625 13.495 44.625 13.495 32 14 C37.94 14.33 43.88 14.66 50 15 C48.92100995 18.23697015 48.416939 18.70324392 45.875 20.75 C41.45001457 24.49916948 37.34969246 28.52828049 33.25 32.625 C32.60015137 33.27049805 31.95030273 33.91599609 31.28076172 34.58105469 C27.96315279 37.90809107 24.84595577 41.24851285 22 45 C21.01 44.67 20.02 44.34 19 44 C18.505 44.99 18.505 44.99 18 46 C17.34 46 16.68 46 16 46 C15.67 47.32 15.34 48.64 15 50 C13.02 50.495 13.02 50.495 11 51 C10.67 50.34 10.34 49.68 10 49 C9.34 49 8.68 49 8 49 C7.01 51.475 7.01 51.475 6 54 C5.34 52.68 4.68 51.36 4 50 C3.34 52.31 2.68 54.62 2 57 C0.35 56.67 -1.3 56.34 -3 56 C-3.29390625 55.02740234 -3.29390625 55.02740234 -3.59375 54.03515625 C-3.8928125 53.05417969 -4.191875 52.07320312 -4.5 51.0625 C-4.85578125 49.89203125 -5.2115625 48.7215625 -5.578125 47.515625 C-6.6781223 43.96458266 -7.85570105 40.44332366 -9.046875 36.921875 C-9.40845703 35.83640381 -9.77003906 34.75093262 -10.14257812 33.63256836 C-10.86894989 31.45489428 -11.60685772 29.28102698 -12.35742188 27.11157227 C-15.39193911 17.93846759 -16.19733593 10.19234081 -13 1 C-9.37 1 -5.74 1 -2 1 C-1.67 4.63 -1.34 8.26 -1 12 C-0.67 8.04 -0.34 4.08 0 0 Z M-11 13 C-11 13.33 -11 13.66 -11 14 C-8.03 14 -5.06 14 -2 14 C-2 13.67 -2 13.34 -2 13 C-4.97 13 -7.94 13 -11 13 Z " fill="#333819" transform="translate(85,60)"/>
<path d="M0 0 C0.96898727 -0.00095673 1.93797455 -0.00191345 2.93632507 -0.00289917 C4.98123235 -0.00357785 7.02614182 -0.00174534 9.07104492 0.00244141 C12.17827274 0.00777654 15.28535487 0.00249481 18.39257812 -0.00390625 C20.38671907 -0.00324507 22.38085992 -0.00196309 24.375 0 C25.29404617 -0.00202423 26.21309235 -0.00404846 27.1599884 -0.00613403 C42.45789189 0.04860783 42.45789189 0.04860783 46.76953125 3.3203125 C53.57725379 11.85961603 53.57725379 11.85961603 53.38671875 16.8828125 C52.151872 22.01428678 48.8843165 24.9208698 44.88671875 28.1328125 C44.22800781 28.68066406 43.56929688 29.22851562 42.890625 29.79296875 C39.80702648 32.23941046 37.22448132 34.0030241 33.51171875 35.4296875 C29.37346367 37.1392545 26.84838804 39.85438713 23.88671875 43.1328125 C19.81934757 47.63519664 16.56765742 49.94626416 10.88671875 52.1328125 C9.53363562 53.44609907 8.19801797 54.77780331 6.88671875 56.1328125 C4.38671875 57.2578125 4.38671875 57.2578125 1.88671875 58.1328125 C-1.38426199 59.53466139 -2.03508228 60.01551405 -4.11328125 63.1328125 C-8.60787649 62.43053199 -13.01938166 61.13193637 -17.11328125 59.1328125 C-17.44328125 58.4728125 -17.77328125 57.8128125 -18.11328125 57.1328125 C-19.06203125 56.6584375 -20.01078125 56.1840625 -20.98828125 55.6953125 C-24.11328125 54.1328125 -24.11328125 54.1328125 -25.55078125 52.6328125 C-27.18181073 50.86804732 -27.18181073 50.86804732 -30.28515625 49.953125 C-34.77854327 48.08102504 -37.64354444 45.01601427 -40.92578125 41.5078125 C-44.62916696 37.31703426 -44.62916696 37.31703426 -49.11328125 34.1328125 C-49.11328125 33.4728125 -49.11328125 32.8128125 -49.11328125 32.1328125 C-49.93828125 32.2771875 -50.76328125 32.4215625 -51.61328125 32.5703125 C-56.88050495 31.91190954 -59.42371847 28.73583969 -63.11328125 25.1328125 C-63.91765625 24.5140625 -64.72203125 23.8953125 -65.55078125 23.2578125 C-68.04041597 19.87190928 -68.58630547 16.28655647 -68.11328125 12.1328125 C-65.67578125 9.0703125 -65.67578125 9.0703125 -63.11328125 7.1328125 C-62.45328125 7.4628125 -61.79328125 7.7928125 -61.11328125 8.1328125 C-62.76328125 10.4428125 -64.41328125 12.7528125 -66.11328125 15.1328125 C-65.45328125 15.4628125 -64.79328125 15.7928125 -64.11328125 16.1328125 C-64.77328125 17.1228125 -65.43328125 18.1128125 -66.11328125 19.1328125 C-65.54351562 19.37773438 -64.97375 19.62265625 -64.38671875 19.875 C-60.8968146 21.80584044 -58.34287048 24.65749598 -55.52734375 27.453125 C-53.20071152 29.42591896 -53.20071152 29.42591896 -50.171875 29.0546875 C-46.56348575 29.14685581 -45.39359028 30.19700909 -42.92700195 32.7409668 C-42.47284912 33.24152588 -42.01869629 33.74208496 -41.55078125 34.2578125 C-41.07406982 34.75901611 -40.5973584 35.26021973 -40.10620117 35.77661133 C-36.96171608 39.11104987 -33.94006774 42.52622284 -31.11328125 46.1328125 C-30.61828125 45.1428125 -30.61828125 45.1428125 -30.11328125 44.1328125 C-29.45328125 44.1328125 -28.79328125 44.1328125 -28.11328125 44.1328125 C-28.11328125 44.7928125 -28.11328125 45.4528125 -28.11328125 46.1328125 C-27.51515625 46.4009375 -26.91703125 46.6690625 -26.30078125 46.9453125 C-24.13011242 48.12367558 -22.80510913 49.36342231 -21.11328125 51.1328125 C-21.58636719 50.36839844 -22.05945313 49.60398438 -22.546875 48.81640625 C-23.94560566 46.55062618 -25.34017106 44.28265008 -26.73046875 42.01171875 C-28.36508951 39.34229414 -30.01937174 36.68621285 -31.68359375 34.03515625 C-32.51469119 32.6929363 -33.3454284 31.35049322 -34.17578125 30.0078125 C-34.58175537 29.36900146 -34.98772949 28.73019043 -35.40600586 28.07202148 C-36.38756975 26.47153835 -37.26024983 24.80534093 -38.11328125 23.1328125 C-37.78328125 22.1428125 -37.45328125 21.1528125 -37.11328125 20.1328125 C-34.56042163 21.40924231 -34.16602245 22.60047584 -32.84375 25.109375 C-30.19739646 30.01362651 -27.34651696 34.76310715 -24.42578125 39.5078125 C-23.94044922 40.30058594 -23.45511719 41.09335938 -22.95507812 41.91015625 C-21.0492579 45.01730039 -19.13553793 48.09942748 -17.11328125 51.1328125 C-17.75041329 47.76119688 -18.53417707 44.48684874 -19.48828125 41.19140625 C-19.88273437 39.82145508 -19.88273437 39.82145508 -20.28515625 38.42382812 C-20.5584375 37.48216797 -20.83171875 36.54050781 -21.11328125 35.5703125 C-21.65553118 33.6941789 -22.19721945 31.81788284 -22.73828125 29.94140625 C-22.97804687 29.11439209 -23.2178125 28.28737793 -23.46484375 27.43530273 C-24.05423049 25.34249163 -24.59863999 23.24508716 -25.11328125 21.1328125 C-24.12328125 20.8028125 -23.13328125 20.4728125 -22.11328125 20.1328125 C-21.88664795 20.84300537 -21.66001465 21.55319824 -21.42651367 22.28491211 C-20.38519355 25.54690114 -19.34299337 28.80860836 -18.30078125 32.0703125 C-17.94435547 33.18728516 -17.58792969 34.30425781 -17.22070312 35.45507812 C-16.86943359 36.55400391 -16.51816406 37.65292969 -16.15625 38.78515625 C-15.81126465 39.86651855 -15.4662793 40.94788086 -15.11083984 42.06201172 C-14.00302138 45.47222724 -12.8327136 48.8575691 -11.62231445 52.23266602 C-11.11328125 54.1328125 -11.11328125 54.1328125 -11.11328125 58.1328125 C-10.45328125 58.1328125 -9.79328125 58.1328125 -9.11328125 58.1328125 C-9.11328125 44.9328125 -9.11328125 31.7328125 -9.11328125 18.1328125 C-8.78328125 18.1328125 -8.45328125 18.1328125 -8.11328125 18.1328125 C-8.11328125 31.6628125 -8.11328125 45.1928125 -8.11328125 59.1328125 C-7.45328125 59.1328125 -6.79328125 59.1328125 -6.11328125 59.1328125 C-5.92765625 57.43125 -5.92765625 57.43125 -5.73828125 55.6953125 C-5.53203125 54.5196875 -5.32578125 53.3440625 -5.11328125 52.1328125 C-4.45328125 51.8028125 -3.79328125 51.4728125 -3.11328125 51.1328125 C-2.61828125 53.1128125 -2.61828125 53.1128125 -2.11328125 55.1328125 C-1.84515625 54.4934375 -1.57703125 53.8540625 -1.30078125 53.1953125 C-0.11328125 51.1328125 -0.11328125 51.1328125 2.88671875 50.1328125 C3.21671875 50.7928125 3.54671875 51.4528125 3.88671875 52.1328125 C4.87671875 52.1328125 5.86671875 52.1328125 6.88671875 52.1328125 C7.21671875 50.8128125 7.54671875 49.4928125 7.88671875 48.1328125 C8.54671875 48.1328125 9.20671875 48.1328125 9.88671875 48.1328125 C10.21671875 47.1428125 10.54671875 46.1528125 10.88671875 45.1328125 C11.21671875 45.7928125 11.54671875 46.4528125 11.88671875 47.1328125 C12.96348877 46.05604248 12.96348877 46.05604248 14.06201172 44.95751953 C23.33691406 35.68261719 32.61181641 26.40771484 41.88671875 17.1328125 C40.79359375 17.3184375 39.70046875 17.5040625 38.57421875 17.6953125 C33.27976182 18.37969472 28.16190567 17.76311976 22.88671875 17.1328125 C23.21671875 16.4728125 23.54671875 15.8128125 23.88671875 15.1328125 C32.13671875 15.1328125 40.38671875 15.1328125 48.88671875 15.1328125 C46.57671875 12.1628125 44.26671875 9.1928125 41.88671875 6.1328125 C41.88671875 4.8128125 41.88671875 3.4928125 41.88671875 2.1328125 C40.56671875 2.1328125 39.24671875 2.1328125 37.88671875 2.1328125 C37.88671875 2.7928125 37.88671875 3.4528125 37.88671875 4.1328125 C37.22671875 4.1328125 36.56671875 4.1328125 35.88671875 4.1328125 C35.88671875 3.4728125 35.88671875 2.8128125 35.88671875 2.1328125 C35.32984375 2.21660156 34.77296875 2.30039062 34.19921875 2.38671875 C28.82880767 3.10337834 24.23288443 3.00763961 18.88671875 2.1328125 C18.88671875 3.4528125 18.88671875 4.7728125 18.88671875 6.1328125 C18.22671875 6.1328125 17.56671875 6.1328125 16.88671875 6.1328125 C16.88671875 4.8128125 16.88671875 3.4928125 16.88671875 2.1328125 C13.25671875 2.1328125 9.62671875 2.1328125 5.88671875 2.1328125 C5.88671875 3.7828125 5.88671875 5.4328125 5.88671875 7.1328125 C5.58121094 6.16601562 5.58121094 6.16601562 5.26953125 5.1796875 C4.01992525 2.82127378 4.01992525 2.82127378 1.06640625 2.5234375 C-0.02414063 2.47703125 -1.1146875 2.430625 -2.23828125 2.3828125 C-4.17703125 2.3003125 -6.11578125 2.2178125 -8.11328125 2.1328125 C-8.11328125 6.0928125 -8.11328125 10.0528125 -8.11328125 14.1328125 C-8.44328125 14.1328125 -8.77328125 14.1328125 -9.11328125 14.1328125 C-9.11328125 10.1728125 -9.11328125 6.2128125 -9.11328125 2.1328125 C-11.42328125 2.1328125 -13.73328125 2.1328125 -16.11328125 2.1328125 C-16.11328125 1.8028125 -16.11328125 1.4728125 -16.11328125 1.1328125 C-10.7143993 0.01173319 -5.48579559 -0.01200334 0 0 Z M-19.11328125 15.1328125 C-16.14328125 15.1328125 -13.17328125 15.1328125 -10.11328125 15.1328125 C-10.11328125 15.4628125 -10.11328125 15.7928125 -10.11328125 16.1328125 C-13.08328125 16.1328125 -16.05328125 16.1328125 -19.11328125 16.1328125 C-19.11328125 15.8028125 -19.11328125 15.4728125 -19.11328125 15.1328125 Z " fill="#090B03" transform="translate(93.11328125,57.8671875)"/>
<path d="M0 0 C8.33333333 0 16.66666667 0 25 0 C24.67 0.66 24.34 1.32 24 2 C21.03 1.67 18.06 1.34 15 1 C15.66 5.62 16.32 10.24 17 15 C11.72 15 6.44 15 1 15 C1.33 28.86 1.66 42.72 2 57 C0.35 56.67 -1.3 56.34 -3 56 C-3.29390625 55.02740234 -3.29390625 55.02740234 -3.59375 54.03515625 C-3.8928125 53.05417969 -4.191875 52.07320312 -4.5 51.0625 C-4.85578125 49.89203125 -5.2115625 48.7215625 -5.578125 47.515625 C-6.6781223 43.96458266 -7.85570105 40.44332366 -9.046875 36.921875 C-9.40845703 35.83640381 -9.77003906 34.75093262 -10.14257812 33.63256836 C-10.86894989 31.45489428 -11.60685772 29.28102698 -12.35742188 27.11157227 C-15.39193911 17.93846759 -16.19733593 10.19234081 -13 1 C-9.37 1 -5.74 1 -2 1 C-1.67 4.63 -1.34 8.26 -1 12 C-0.67 8.04 -0.34 4.08 0 0 Z M-11 13 C-11 13.33 -11 13.66 -11 14 C-8.03 14 -5.06 14 -2 14 C-2 13.67 -2 13.34 -2 13 C-4.97 13 -7.94 13 -11 13 Z " fill="#373F1B" transform="translate(85,60)"/>
<path d="M0 0 C4.29 0 8.58 0 13 0 C13 13.53 13 27.06 13 41 C11.61990769 38.23981538 10.56634691 35.93071387 9.63671875 33.0546875 C9.25265869 31.87471191 9.25265869 31.87471191 8.86083984 30.67089844 C8.5767627 29.78950195 8.29268555 28.90810547 8 28 C7.67338379 27.00258789 7.34676758 26.00517578 7.01025391 24.97753906 C5.93673883 21.6957781 4.8738333 18.41071899 3.8125 15.125 C3.44447266 13.99835938 3.07644531 12.87171875 2.69726562 11.7109375 C2.34986328 10.63328125 2.00246094 9.555625 1.64453125 8.4453125 C1.32846924 7.47094238 1.01240723 6.49657227 0.68676758 5.49267578 C0 3 0 3 0 0 Z " fill="#FCFAEA" transform="translate(70,75)"/>
<path d="M0 0 C3.96 0 7.92 0 12 0 C10.85629528 8.51424625 8.36852654 16.30031327 5.56420898 24.38549805 C3.77738109 29.55379804 2.24032698 34.67279561 1 40 C0.67 40 0.34 40 0 40 C0 26.8 0 13.6 0 0 Z " fill="#FBFAE6" transform="translate(86,76)"/>
<path d="M0 0 C2.83203125 0.03255208 5.6640625 0.06510417 8.49609375 0.09765625 C4.23272315 8.0095921 -0.17495462 15.82762421 -4.69140625 23.59765625 C-5.30693359 24.66757813 -5.92246094 25.7375 -6.55664062 26.83984375 C-7.15154297 27.86335938 -7.74644531 28.886875 -8.359375 29.94140625 C-9.15831177 31.32102539 -9.15831177 31.32102539 -9.97338867 32.72851562 C-11.33171652 34.83111786 -12.65529723 36.42736407 -14.50390625 38.09765625 C-13.71983988 33.71711151 -12.51754882 29.48382153 -11.25390625 25.22265625 C-11.03573242 24.48466797 -10.81755859 23.74667969 -10.59277344 22.98632812 C-3.77616489 0.14727632 -3.77616489 0.14727632 0 0 Z " fill="#F5F7DA" transform="translate(104.50390625,75.90234375)"/>
<path d="M0 0 C3.63 0 7.26 0 11 0 C15.54104672 11.03623239 19.19305504 22.16451053 21 34 C17.9852002 31.17755552 15.79663644 28.34809176 13.65234375 24.82421875 C12.74452148 23.33438477 12.74452148 23.33438477 11.81835938 21.81445312 C11.19767578 20.78255859 10.57699219 19.75066406 9.9375 18.6875 C9.31294922 17.66720703 8.68839844 16.64691406 8.04492188 15.59570312 C4.9641509 10.5093075 2.13837782 5.55351603 0 0 Z " fill="#F6F8E6" transform="translate(56,76)"/>
<path d="M0 0 C3.11579099 -0.47023594 5.89924787 -0.63345893 9 0 C11.42291898 2.16209484 12.6531592 4.79393183 14.0625 7.6875 C14.89558144 9.2495277 15.73023605 10.81071732 16.56640625 12.37109375 C16.97133301 13.15210449 17.37625977 13.93311523 17.79345703 14.73779297 C19.53886492 18.01034446 21.50505691 21.12552967 23.5 24.25 C25.72163405 27.76455223 27.57314471 31.0904165 29 35 C28.236875 34.21625 27.47375 33.4325 26.6875 32.625 C24.09108195 29.92742283 24.09108195 29.92742283 21 28 C20.02854691 26.29278392 19.05995562 24.58370891 18.12011719 22.85888672 C16.34640588 19.91533007 14.00323568 17.5162222 11.625 15.0625 C0 2.73965108 0 2.73965108 0 0 Z " fill="#F6FAE3" transform="translate(44,76)"/>
<path d="M0 0 C-4.01428685 5.5332062 -8.30070888 10.78168412 -12.73486328 15.97998047 C-17.23449249 21.2574752 -21.62939969 26.61498876 -26 32 C-26.33 31.34 -26.66 30.68 -27 30 C-25.89179325 27.75013192 -24.73201869 25.64439642 -23.44921875 23.49609375 C-22.8882122 22.53836815 -22.8882122 22.53836815 -22.31587219 21.56129456 C-21.52182036 20.20988945 -20.72378265 18.86081976 -19.92211914 17.51391602 C-18.69376382 15.44803467 -17.47979794 13.37420955 -16.26757812 11.29882812 C-15.4956353 9.98908574 -14.72287575 8.67982431 -13.94921875 7.37109375 C-13.58455002 6.74818954 -13.21988129 6.12528534 -12.84416199 5.48350525 C-9.16669177 -0.66369278 -6.75684526 -0.10898138 0 0 Z " fill="#E8EFC6" transform="translate(125,76)"/>
<path d="M0 0 C9.57 0 19.14 0 29 0 C28.67 1.32 28.34 2.64 28 4 C28 3.01 28 2.02 28 1 C26.35333797 1.1135629 24.70763918 1.24117381 23.0625 1.375 C22.14597656 1.44460937 21.22945312 1.51421875 20.28515625 1.5859375 C19.53105469 1.72257812 18.77695312 1.85921875 18 2 C17.67 2.66 17.34 3.32 17 4 C16.01 4.495 16.01 4.495 15 5 C14.67 3.68 14.34 2.36 14 1 C11.36 1.33 8.72 1.66 6 2 C12.56484185 10.08853354 19.25094387 18.0651284 26 26 C25.34 26.33 24.68 26.66 24 27 C24.33 27.99 24.66 28.98 25 30 C20.0266986 28.04620302 17.75176383 24.41999834 15.3125 19.8125 C12.93932447 15.48216378 9.59553767 12.09494305 6.21875 8.52734375 C4 6 4 6 0 0 Z " fill="#464F24" transform="translate(39,75)"/>
<path d="M0 0 C3.63 0 7.26 0 11 0 C11 3.96 11 7.92 11 12 C6.71 12 2.42 12 -2 12 C-1.51775271 7.86645178 -1.01114519 4.04458076 0 0 Z " fill="#F9FCDE" transform="translate(72,61)"/>
<path d="M0 0 C1.32 0 2.64 0 4 0 C4.3403125 1.051875 4.3403125 1.051875 4.6875 2.125 C5.84224089 4.65443242 6.84107539 6.13068041 8.625 8.1875 C11 11 11 11 11 13 C9.00045254 13.04254356 6.99958364 13.04080783 5 13 C4.67 12.67 4.34 12.34 4 12 C2.00041636 11.95919217 -0.00045254 11.95745644 -2 12 C-2.45375 11.05125 -2.9075 10.1025 -3.375 9.125 C-4.80238254 5.99686321 -4.80238254 5.99686321 -7 4 C-7 3.01 -7 2.02 -7 1 C-4.69 1.33 -2.38 1.66 0 2 C0 1.34 0 0.68 0 0 Z " fill="#3B461A" transform="translate(131,60)"/>
<path d="M0 0 C4.29 0 8.58 0 13 0 C13 13.53 13 27.06 13 41 C11.59512929 38.19025858 10.52475133 35.80587577 9.57421875 32.87109375 C9.19015869 31.69135986 9.19015869 31.69135986 8.79833984 30.48779297 C8.40316162 29.25633545 8.40316162 29.25633545 8 28 C7.73525879 27.18289551 7.47051758 26.36579102 7.19775391 25.52392578 C6.39575187 23.03893831 5.60301641 20.55116277 4.8125 18.0625 C4.40354492 16.78922852 4.40354492 16.78922852 3.98632812 15.49023438 C3.60057617 14.2749707 3.60057617 14.2749707 3.20703125 13.03515625 C2.85862183 11.94279663 2.85862183 11.94279663 2.50317383 10.82836914 C2 9 2 9 2 7 C2.66 7 3.32 7 4 7 C4 8.65 4 10.3 4 12 C4.66 12 5.32 12 6 12 C7.32 16.62 8.64 21.24 10 26 C11.68300669 24.31699331 11.22809077 22.17991273 11.31640625 19.87109375 C11.35830078 18.83662109 11.40019531 17.80214844 11.44335938 16.73632812 C11.48267578 15.64771484 11.52199219 14.55910156 11.5625 13.4375 C11.60568359 12.34501953 11.64886719 11.25253906 11.69335938 10.12695312 C11.79981958 7.41813232 11.90044807 4.70908349 12 2 C8.7 2 5.4 2 2 2 C1.67 3.32 1.34 4.64 1 6 C0.67 4.02 0.34 2.04 0 0 Z " fill="#DFE8B6" transform="translate(70,75)"/>
<path d="M0 0 C3.63 0 7.26 0 11 0 C11.33 3.63 11.66 7.26 12 11 C8.04 11 4.08 11 0 11 C0 7.37 0 3.74 0 0 Z " fill="#FCFCED" transform="translate(86,61)"/>
<path d="M0 0 C2.97 0 5.94 0 9 0 C13 7.625 13 7.625 13 11 C9.04 11 5.08 11 1 11 C0.67 7.37 0.34 3.74 0 0 Z " fill="#FBFCEC" transform="translate(100,61)"/>
<path d="M0 0 C1.82848754 2.74273131 2.65876234 4.6918431 3.62109375 7.7890625 C3.91693359 8.73136719 4.21277344 9.67367187 4.51757812 10.64453125 C4.82115234 11.62808594 5.12472656 12.61164063 5.4375 13.625 C6.03977533 15.55487149 6.64263369 17.48456114 7.24609375 19.4140625 C7.53597168 20.35282227 7.82584961 21.29158203 8.12451172 22.25878906 C9.17719586 25.5548118 10.34956604 28.80181303 11.56665039 32.04052734 C12.07657861 34.34626474 11.73169388 35.7797945 11 38 C11 37.34 11 36.68 11 36 C9.515 36.495 9.515 36.495 8 37 C6.4375 35.3125 6.4375 35.3125 5 33 C5.17015625 32.24074219 5.3403125 31.48148438 5.515625 30.69921875 C6.11138037 27.3793239 5.47538898 25.64714937 4.3125 22.5 C3.94382812 21.46101563 3.57515625 20.42203125 3.1953125 19.3515625 C2.60363281 17.69253906 2.60363281 17.69253906 2 16 C1.213477 13.63014967 0.44219082 11.25517873 -0.3125 8.875 C-0.65925781 7.79992187 -1.00601563 6.72484375 -1.36328125 5.6171875 C-2 3 -2 3 -1 1 C-0.67 0.67 -0.34 0.34 0 0 Z " fill="#434C22" transform="translate(70,78)"/>
<path d="M0 0 C2.26925689 -0.00356241 4.53745614 0.14458468 6.80078125 0.30859375 C6.14078125 3.93859375 5.48078125 7.56859375 4.80078125 11.30859375 C1.17078125 11.30859375 -2.45921875 11.30859375 -6.19921875 11.30859375 C-4.96528073 0.69672678 -4.96528073 0.69672678 0 0 Z " fill="#FAFBE6" transform="translate(62.19921875,60.69140625)"/>
<path d="M0 0 C0.33 0 0.66 0 1 0 C1.33 2.64 1.66 5.28 2 8 C2.66 8 3.32 8 4 8 C3.49498642 13.073091 1.87296636 16.2996291 -0.875 20.5625 C-1.57367188 21.65691406 -2.27234375 22.75132813 -2.9921875 23.87890625 C-3.65476562 24.90886719 -4.31734375 25.93882813 -5 27 C-6.00690151 28.66250628 -7.00963452 30.32759036 -8 32 C-9.34622882 27.96131353 -8.23522096 26.17195314 -6.8125 22.1875 C-6.34376891 20.84725553 -5.8776868 19.50608209 -5.4140625 18.1640625 C-5.17719727 17.47860352 -4.94033203 16.79314453 -4.69628906 16.08691406 C-2.92794914 10.78685457 -1.48515806 5.38473509 0 0 Z " fill="#E0E6C1" transform="translate(99,82)"/>
<path d="M0 0 C0.33 0.99 0.66 1.98 1 3 C2.32 3 3.64 3 5 3 C5.66 4.98 6.32 6.96 7 9 C7.77772405 6.66682784 8.42415568 4.38564077 9 2 C9.81639318 4.87394498 10.62822141 7.7490513 11.4375 10.625 C11.66759766 11.43324219 11.89769531 12.24148437 12.13476562 13.07421875 C13.3387872 17.3668174 14.37712252 21.57542207 15 26 C10.57215173 21.8236865 7.78411603 17.06908667 4.6875 11.875 C4.12482422 10.95589844 3.56214844 10.03679687 2.98242188 9.08984375 C2.45583984 8.21199219 1.92925781 7.33414063 1.38671875 6.4296875 C0.90420654 5.62772949 0.42169434 4.82577148 -0.07543945 3.99951172 C-0.38054443 3.33967285 -0.68564941 2.67983398 -1 2 C-0.67 1.34 -0.34 0.68 0 0 Z " fill="#E9EDCA" transform="translate(62,84)"/>
<path d="M0 0 C0.845625 0.185625 1.69125 0.37125 2.5625 0.5625 C1.45547888 3.88356337 0.66038535 4.55750501 -1.96875 6.72265625 C-6.53048484 10.59300316 -10.73474622 14.74665752 -14.9375 19 C-15.66453125 19.73154297 -16.3915625 20.46308594 -17.140625 21.21679688 C-18.90859499 22.99639824 -20.67416378 24.77830918 -22.4375 26.5625 C-22.4375 22.16873621 -19.67283737 20.05310417 -16.875 16.9375 C-13.21647144 12.80731819 -9.7475655 8.70267186 -6.5625 4.1875 C-3.89123103 0.6367469 -3.89123103 0.6367469 0 0 Z " fill="#DFE9B5" transform="translate(132.4375,74.4375)"/>
<path d="M0 0 C3.1875 -0.5 3.1875 -0.5 7 0 C10.0519545 3.24081307 12 6.52295347 12 11 C9.03 11 6.06 11 3 11 C0 3.375 0 3.375 0 0 Z " fill="#F3F7E2" transform="translate(113,61)"/>
<path d="M0 0 C3.5665638 1.1888546 3.68594533 1.76021828 5.328125 4.9765625 C7.07891888 8.29047146 8.8872245 11.52320573 10.859375 14.7109375 C11.57287109 15.86529297 11.57287109 15.86529297 12.30078125 17.04296875 C13.28178752 18.62156914 14.26358139 20.1996803 15.24609375 21.77734375 C15.71660156 22.53917969 16.18710938 23.30101563 16.671875 24.0859375 C17.30754395 25.1076001 17.30754395 25.1076001 17.95605469 26.14990234 C19 28 19 28 20 31 C19.01 31 18.02 31 17 31 C15.2734375 28.68359375 15.2734375 28.68359375 13.375 25.4375 C12.67451981 24.25127808 11.97399721 23.06508121 11.2734375 21.87890625 C10.72381348 20.9355542 10.72381348 20.9355542 10.16308594 19.97314453 C8.96026084 17.93258357 7.72356354 15.91617876 6.4765625 13.90234375 C5.65098318 12.5599318 4.82546109 11.21748465 4 9.875 C3.60216309 9.23618896 3.20432617 8.59737793 2.79443359 7.93920898 C0 3.3395491 0 3.3395491 0 0 Z " fill="#313618" transform="translate(55,78)"/>
<path d="M0 0 C1.60875 0.185625 1.60875 0.185625 3.25 0.375 C2.64301257 4.50251449 1.21189209 7.7071148 -0.75 11.375 C-3.39 11.375 -6.03 11.375 -8.75 11.375 C-8.05700875 5.48457436 -6.33848708 0.63384871 0 0 Z " fill="#F0F6CD" transform="translate(52.75,60.625)"/>
<path d="M0 0 C2.23046875 -0.2734375 2.23046875 -0.2734375 5 0 C7.17578125 1.8359375 7.17578125 1.8359375 9.3125 4.375 C10.08078125 5.27734375 10.8490625 6.1796875 11.640625 7.109375 C15.12714318 11.38093701 18.60640794 15.65398292 22 20 C21.67 20.66 21.34 21.32 21 22 C20.40832031 21.39671875 19.81664063 20.7934375 19.20703125 20.171875 C15.28365913 16.20370091 11.40944418 12.4295677 7 9 C3.98531292 6.19563993 1.56543178 3.84242345 0 0 Z " fill="#DEEBB5" transform="translate(34,75)"/>
<path d="M0 0 C1.98 0 3.96 0 6 0 C3.66110832 5.64693738 -1.17554003 9.44816211 -6 13 C-8.60482438 13.94637358 -10.20156952 14.06083545 -13 14 C-10.11093566 10.44501658 -7.25953148 7.07626154 -3.6875 4.1875 C-0.96924803 2.28130489 -0.96924803 2.28130489 0 0 Z " fill="#38411B" transform="translate(135,75)"/>
<path d="M0 0 C0 3.96 0 7.92 0 12 C-0.33 12 -0.66 12 -1 12 C-1 8.37 -1 4.74 -1 1 C-4.63 1 -8.26 1 -12 1 C-12.12375 2.0725 -12.2475 3.145 -12.375 4.25 C-12.89643936 7.37863615 -13.40088254 9.33480424 -15 12 C-15.66 12 -16.32 12 -17 12 C-16.34 8.37 -15.68 4.74 -15 1 C-18.3 1.33 -21.6 1.66 -25 2 C-25 1.34 -25 0.68 -25 0 C-16.53438902 -1.12298921 -8.48799189 -0.80542989 0 0 Z " fill="#404921" transform="translate(84,60)"/>
<path d="M0 0 C2.31 0 4.62 0 7 0 C7.34699589 4.85794252 6.62403334 7.87651904 4 12 C2.02 12.99 2.02 12.99 0 14 C0 9.38 0 4.76 0 0 Z " fill="#FDFAEF" transform="translate(88,77)"/>
<path d="M0 0 C0.66 0 1.32 0 2 0 C2 0.66 2 1.32 2 2 C2.83144531 1.9278125 3.66289063 1.855625 4.51953125 1.78125 C6.14955078 1.64203125 6.14955078 1.64203125 7.8125 1.5 C9.43091797 1.36078125 9.43091797 1.36078125 11.08203125 1.21875 C14 1 14 1 17 1 C18.43088528 3.86177057 17.59991697 5.93375773 17 9 C16.34 8.67 15.68 8.34 15 8 C15 6.68 15 5.36 15 4 C14.11699219 4.08378906 13.23398438 4.16757813 12.32421875 4.25390625 C4.72290404 4.89891577 -2.43413122 5.00363565 -10 4 C-10 3.34 -10 2.68 -10 2 C-9.04287109 1.90912109 -9.04287109 1.90912109 -8.06640625 1.81640625 C-6.82697266 1.69072266 -6.82697266 1.69072266 -5.5625 1.5625 C-4.73878906 1.48128906 -3.91507813 1.40007812 -3.06640625 1.31640625 C-1.01337975 1.21069185 -1.01337975 1.21069185 0 0 Z " fill="#161A06" transform="translate(53,71)"/>
<path d="M0 0 C0.33 0.66 0.66 1.32 1 2 C0.36191406 2.74765625 -0.27617188 3.4953125 -0.93359375 4.265625 C-1.75988281 5.25046875 -2.58617188 6.2353125 -3.4375 7.25 C-4.26121094 8.22453125 -5.08492187 9.1990625 -5.93359375 10.203125 C-7.80480151 12.73579939 -8.40606753 14.03033763 -9 17 C-11.0625 18.25 -11.0625 18.25 -13 19 C-13.33 18.67 -13.66 18.34 -14 18 C-14.33 18.66 -14.66 19.32 -15 20 C-15.66 19.67 -16.32 19.34 -17 19 C-15.29974763 16.76425889 -13.59031905 14.53663778 -11.875 12.3125 C-11.400625 11.68666016 -10.92625 11.06082031 -10.4375 10.41601562 C-7.2931304 6.35807918 -4.05779467 3.14870417 0 0 Z " fill="#2E3418" transform="translate(118,86)"/>
<path d="M0 0 C0.66 0 1.32 0 2 0 C1.55052002 8.54011956 -1.14908583 16.01533633 -4 24 C-4.99 23.67 -5.98 23.34 -7 23 C-5.18120817 15.10479003 -2.92975651 7.55490512 0 0 Z " fill="#484E2D" transform="translate(95,87)"/>
<path d="M0 0 C-0.92543709 1.34173403 -1.86577405 2.67320159 -2.8125 4 C-3.59560547 5.11375 -3.59560547 5.11375 -4.39453125 6.25 C-4.92433594 6.8275 -5.45414062 7.405 -6 8 C-6.99 8 -7.98 8 -9 8 C-9.99 9.485 -9.99 9.485 -11 11 C-11.66 10.67 -12.32 10.34 -13 10 C-12.4454626 6.67277559 -11.75986957 3.8986087 -10 1 C-6.78548731 -0.60725635 -3.56387464 -0.05748185 0 0 Z " fill="#EAF0CD" transform="translate(125,76)"/>
<path d="M0 0 C1.65 0 3.3 0 5 0 C3.43358249 4.30764815 1.31663844 8.06171464 -1 12 C-2.98 12 -4.96 12 -7 12 C-5.87548273 9.0280615 -4.77706209 6.66559313 -3 4 C-2.34 4 -1.68 4 -1 4 C-0.67 2.68 -0.34 1.36 0 0 Z " fill="#EEF5D2" transform="translate(40,61)"/>
<path d="M0 0 C0.66 0 1.32 0 2 0 C1.40165275 4.14298667 -0.00664285 7.18194377 -2.0625 10.8125 C-2.61035156 11.78832031 -3.15820312 12.76414062 -3.72265625 13.76953125 C-4.14417969 14.50558594 -4.56570312 15.24164063 -5 16 C-4.34 15.67 -3.68 15.34 -3 15 C-3.33 16.32 -3.66 17.64 -4 19 C-5.32 19.33 -6.64 19.66 -8 20 C-9.12011719 18.24316406 -9.12011719 18.24316406 -10 16 C-9.34082031 14.07714844 -9.34082031 14.07714844 -8.078125 12.109375 C-7.40523438 11.04589844 -7.40523438 11.04589844 -6.71875 9.9609375 C-6.2340625 9.23132813 -5.749375 8.50171875 -5.25 7.75 C-4.78078125 7.00492187 -4.3115625 6.25984375 -3.828125 5.4921875 C-1.24880802 1.49131513 -1.24880802 1.49131513 0 0 Z " fill="#32381A" transform="translate(104,91)"/>
<path d="M0 0 C-0.33 0.66 -0.66 1.32 -1 2 C-2.32 1.67 -3.64 1.34 -5 1 C-4.54625 1.70125 -4.0925 2.4025 -3.625 3.125 C-1.98313057 6.02984591 -0.96322901 8.8139348 0 12 C3.465 11.505 3.465 11.505 7 11 C7 11.66 7 12.32 7 13 C0.73 13 -5.54 13 -12 13 C-12 12.67 -12 12.34 -12 12 C-9.36 12 -6.72 12 -4 12 C-5.65 8.37 -7.3 4.74 -9 1 C-5.8035914 -0.06546953 -3.34252724 -0.07427838 0 0 Z " fill="#67703F" transform="translate(129,60)"/>
<path d="M0 0 C8.91 0 17.82 0 27 0 C27 0.33 27 0.66 27 1 C23.37 1.33 19.74 1.66 16 2 C14.68 6.29 13.36 10.58 12 15 C10 12 10 12 10.2421875 9.30078125 C10.828125 6.53385417 11.4140625 3.76692708 12 1 C8.04 1 4.08 1 0 1 C0 0.67 0 0.34 0 0 Z " fill="#5B6337" transform="translate(86,75)"/>
<path d="M0 0 C2.125 0 2.125 0 5 1 C11 7.39344262 11 7.39344262 11 11 C9.02 11 7.04 11 5 11 C4.54625 10.05125 4.0925 9.1025 3.625 8.125 C2.19761746 4.99686321 2.19761746 4.99686321 0 3 C0 2.01 0 1.02 0 0 Z " fill="#E7F1C5" transform="translate(124,61)"/>
<path d="M0 0 C0.33 0 0.66 0 1 0 C1 8.91 1 17.82 1 27 C1.99 27 2.98 27 4 27 C2.515 33.435 2.515 33.435 1 40 C0.67 40 0.34 40 0 40 C0 26.8 0 13.6 0 0 Z " fill="#E6EEB9" transform="translate(86,76)"/>
<path d="M0 0 C4.29 0 8.58 0 13 0 C13 9.24 13 18.48 13 28 C12.67 28 12.34 28 12 28 C12 19.42 12 10.84 12 2 C8.7 2 5.4 2 2 2 C1.67 3.32 1.34 4.64 1 6 C0.67 4.02 0.34 2.04 0 0 Z " fill="#CAD39A" transform="translate(70,75)"/>
<path d="M0 0 C3.27127441 3.00467275 5.42194494 6.08943247 7.625 9.9375 C8.21539062 10.95714844 8.80578125 11.97679688 9.4140625 13.02734375 C10.81127251 15.64625217 11.96631578 18.221334 13 21 C12.236875 20.21625 11.47375 19.4325 10.6875 18.625 C8.09108195 15.92742283 8.09108195 15.92742283 5 14 C3.90234375 12.37890625 3.90234375 12.37890625 2.9375 10.5625 C1.7043164 8.26947187 0.45285713 6.1792857 -1 4 C-0.34 4 0.32 4 1 4 C0.67 2.68 0.34 1.36 0 0 Z " fill="#DCE5B1" transform="translate(60,90)"/>
<path d="M0 0 C2.97 0 5.94 0 9 0 C10.11658501 4.68965706 9.80619523 7.53763531 8 12 C11.63 12 15.26 12 19 12 C19 12.33 19 12.66 19 13 C15.04 13 11.08 13 7 13 C7 12.34 7 11.68 7 11 C6.01 11.33 5.02 11.66 4 12 C5.2125738 8.27566618 6.50859979 4.62197194 8 1 C4.56206661 1.18129815 4.56206661 1.18129815 1 2 C-0.51294288 3.93597032 -0.51294288 3.93597032 -1 6 C-1.33 5.34 -1.66 4.68 -2 4 C-1.34 2.68 -0.68 1.36 0 0 Z " fill="#5F6739" transform="translate(48,60)"/>
<path d="M0 0 C3.63 0 7.26 0 11 0 C11 3.96 11 7.92 11 12 C6.71 12 2.42 12 -2 12 C-1.67 9.36 -1.34 6.72 -1 4 C-0.06576355 7.01031744 0.04449911 7.86650268 -1 11 C2.3 10.67 5.6 10.34 9 10 C9 7.03 9 4.06 9 1 C4.545 1.495 4.545 1.495 0 2 C0 1.34 0 0.68 0 0 Z " fill="#C1CA94" transform="translate(72,61)"/>
<path d="M0 0 C1.79133978 -0.05391993 3.58313899 -0.09275571 5.375 -0.125 C6.37273437 -0.14820312 7.37046875 -0.17140625 8.3984375 -0.1953125 C11 0 11 0 13 2 C11.57282151 3.67551353 10.13291518 5.34019309 8.6875 7 C7.48673828 8.3921875 7.48673828 8.3921875 6.26171875 9.8125 C4 12 4 12 1 12 C2.66751148 8.05860922 5.22710649 5.2107188 8 2 C5.36 2 2.72 2 0 2 C0 1.34 0 0.68 0 0 Z " fill="#4F572D" transform="translate(116,75)"/>
<path d="M0 0 C1.50433594 0.01353516 1.50433594 0.01353516 3.0390625 0.02734375 C3.80992188 0.03894531 4.58078125 0.05054688 5.375 0.0625 C5.045 0.7225 4.715 1.3825 4.375 2.0625 C1.405 1.7325 -1.565 1.4025 -4.625 1.0625 C-4.295 4.6925 -3.965 8.3225 -3.625 12.0625 C-6.50915883 13.50457941 -9.04221528 13.15644887 -12.25 13.125 C-13.43851562 13.11597656 -14.62703125 13.10695313 -15.8515625 13.09765625 C-16.76679687 13.08605469 -17.68203125 13.07445313 -18.625 13.0625 C-18.625 12.7325 -18.625 12.4025 -18.625 12.0625 C-14.665 12.0625 -10.705 12.0625 -6.625 12.0625 C-6.955 8.4325 -7.285 4.8025 -7.625 1.0625 C-4.98041621 -0.25979189 -2.94738699 -0.03427194 0 0 Z " fill="#566030" transform="translate(104.625,59.9375)"/>
<path d="M0 0 C3.63 0 7.26 0 11 0 C11.33 3.63 11.66 7.26 12 11 C9.69 11 7.38 11 5 11 C5 10.67 5 10.34 5 10 C6.98 10 8.96 10 11 10 C10.505 8.8553125 10.505 8.8553125 10 7.6875 C9 5 9 5 9 2 C6.69 1.67 4.38 1.34 2 1 C1.67 4.3 1.34 7.6 1 11 C0.67 11 0.34 11 0 11 C0 7.37 0 3.74 0 0 Z " fill="#E7F0C4" transform="translate(86,61)"/>
<path d="M0 0 C2.97 0 5.94 0 9 0 C9.33 0.66 9.66 1.32 10 2 C7.03 1.67 4.06 1.34 1 1 C1.33 3.97 1.66 6.94 2 10 C5.465 9.505 5.465 9.505 9 9 C9.33 7.02 9.66 5.04 10 3 C12.5654594 5.5654594 12.54046087 7.47686668 13 11 C9.04 11 5.08 11 1 11 C0.67 7.37 0.34 3.74 0 0 Z " fill="#D6DFAE" transform="translate(100,61)"/>
<path d="M0 0 C0.66 0 1.32 0 2 0 C3.04669086 3.80926839 3.20239733 5.54667409 1.56640625 9.2109375 C0.90511719 10.25507812 0.24382812 11.29921875 -0.4375 12.375 C-1.09621094 13.43460938 -1.75492187 14.49421875 -2.43359375 15.5859375 C-2.95050781 16.38257812 -3.46742187 17.17921875 -4 18 C-5.35814777 13.9255567 -3.94745762 11.18531884 -2.5625 7.3125 C-2.31951172 6.61060547 -2.07652344 5.90871094 -1.82617188 5.18554688 C-1.2255056 3.45421468 -0.61380281 1.72671863 0 0 Z " fill="#D5E0A9" transform="translate(95,96)"/>
<path d="M0 0 C0 0.33 0 0.66 0 1 C-1.65 1 -3.3 1 -5 1 C-5.33 2.32 -5.66 3.64 -6 5 C-6.66 5 -7.32 5 -8 5 C-8.33 5.66 -8.66 6.32 -9 7 C-9.66 7 -10.32 7 -11 7 C-11.825 7.99 -12.65 8.98 -13.5 10 C-14.325 10.99 -15.15 11.98 -16 13 C-16.66 13 -17.32 13 -18 13 C-16.28718126 7.55012219 -13.07508071 4.54300874 -8.5625 1.1875 C-5.52735777 -0.21902933 -3.30759666 -0.23076256 0 0 Z " fill="#475027" transform="translate(45,60)"/>
<path d="M0 0 C3.63960184 5.45940276 5.5073946 11.40387016 5 18 C4.67 17.34 4.34 16.68 4 16 C3.34 16 2.68 16 2 16 C1.30359327 13.87790224 0.61811643 11.75221473 -0.0625 9.625 C-0.44535156 8.44164063 -0.82820313 7.25828125 -1.22265625 6.0390625 C-2 3 -2 3 -1 1 C-0.67 0.67 -0.34 0.34 0 0 Z " fill="#2F351A" transform="translate(70,78)"/>
<path d="M0 0 C6.6 0 13.2 0 20 0 C19.67 0.66 19.34 1.32 19 2 C12.16077994 3.21341001 5.86891324 2.83454086 -1 2 C-0.67 1.34 -0.34 0.68 0 0 Z " fill="#181C06" transform="translate(117,73)"/>
<path d="M0 0 C2.31 0 4.62 0 7 0 C5.68 0.33 4.36 0.66 3 1 C3.33 1.66 3.66 2.32 4 3 C4.04022391 5.3329866 4.04320247 7.66706666 4 10 C5.98 10 7.96 10 10 10 C10.33 8.68 10.66 7.36 11 6 C11.33 7.65 11.66 9.3 12 11 C9.03 11 6.06 11 3 11 C0 3.375 0 3.375 0 0 Z " fill="#D9E0B2" transform="translate(113,61)"/>
<path d="M0 0 C8.25 0 16.5 0 25 0 C24.67 1.32 24.34 2.64 24 4 C24 3.01 24 2.02 24 1 C22.35333797 1.1135629 20.70763918 1.24117381 19.0625 1.375 C18.14597656 1.44460937 17.22945312 1.51421875 16.28515625 1.5859375 C15.15400391 1.79089844 15.15400391 1.79089844 14 2 C13.67 2.66 13.34 3.32 13 4 C12.01 4.495 12.01 4.495 11 5 C10.67 3.68 10.34 2.36 10 1 C6.7 1.33 3.4 1.66 0 2 C0 1.34 0 0.68 0 0 Z " fill="#7A8449" transform="translate(43,75)"/>
<path d="M0 0 C2.31 0 4.62 0 7 0 C6.46930939 3.82097239 5.50298434 6.06171403 3 9 C3 7.35 3 5.7 3 4 C1.68 4.33 0.36 4.66 -1 5 C-0.67 3.35 -0.34 1.7 0 0 Z " fill="#EBF3CB" transform="translate(49,61)"/>
<path d="M0 0 C1.90318884 2.85478326 2.4619099 4.41941308 3.125 7.6875 C3.29257813 8.49574219 3.46015625 9.30398437 3.6328125 10.13671875 C3.75398438 10.75160156 3.87515625 11.36648437 4 12 C3.01 12.33 2.02 12.66 1 13 C0.46809459 11.56656 -0.05015258 10.12804633 -0.5625 8.6875 C-0.85253906 7.88699219 -1.14257812 7.08648437 -1.44140625 6.26171875 C-2 4 -2 4 -1 1 C-0.67 0.67 -0.34 0.34 0 0 Z " fill="#494E2C" transform="translate(75,93)"/>
<path d="M0 0 C0.99 0 1.98 0 3 0 C2.67 2.97 2.34 5.94 2 9 C-0.475 8.01 -0.475 8.01 -3 7 C-1.125 1.125 -1.125 1.125 0 0 Z " fill="#FCF9F4" transform="translate(76,62)"/>
<path d="M0 0 C0.66 0 1.32 0 2 0 C1.63495936 5.66442374 0.9445679 10.00703705 -2 15 C-3.23922223 11.28233332 -2.57018942 9.56110463 -1.5625 5.8125 C-1.13130859 4.18248047 -1.13130859 4.18248047 -0.69140625 2.51953125 C-0.46324219 1.68808594 -0.23507813 0.85664062 0 0 Z " fill="#212512" transform="translate(95,87)"/>
<path d="M0 0 C0.66 0 1.32 0 2 0 C2 0.66 2 1.32 2 2 C2.639375 2.20625 3.27875 2.4125 3.9375 2.625 C6 4 6 4 6.75 7.125 C6.8325 8.07375 6.915 9.0225 7 10 C4.33246269 9.63206382 3.18001672 9.18001672 1.25 7.25 C-0.21079991 4.62056017 -0.24687966 2.9625559 0 0 Z " fill="#F3F7DC" transform="translate(54,84)"/>
<path d="M0 0 C2.79872437 2.52788007 4.45773019 4.20411134 5 8 C3.68 7.34 2.36 6.68 1 6 C1.33 5.34 1.66 4.68 2 4 C1.34 4 0.68 4 0 4 C-0.33 5.32 -0.66 6.64 -1 8 C-2.32 6.35 -3.64 4.7 -5 3 C-4.360625 2.87625 -3.72125 2.7525 -3.0625 2.625 C-2.0415625 2.315625 -2.0415625 2.315625 -1 2 C-0.67 1.34 -0.34 0.68 0 0 Z " fill="#E1E7BD" transform="translate(54,80)"/>
<path d="M0 0 C0.66 0 1.32 0 2 0 C1.36843005 5.05255964 -0.13459373 9.29593201 -2 14 C-2.33 14 -2.66 14 -3 14 C-3.29341888 8.32723489 -3.00559652 5.00932754 0 0 Z " fill="#E6EBC2" transform="translate(95,81)"/>
<path d="M0 0 C1.5625 1.125 1.5625 1.125 3 3 C2.6875 6.1875 2.6875 6.1875 2 9 C1.34 8.67 0.68 8.34 0 8 C-0.33 6.68 -0.66 5.36 -1 4 C-4.96 3.67 -8.92 3.34 -13 3 C-13 2.67 -13 2.34 -13 2 C-12.14535156 1.93941406 -11.29070313 1.87882812 -10.41015625 1.81640625 C-8.75306641 1.69072266 -8.75306641 1.69072266 -7.0625 1.5625 C-5.96035156 1.48128906 -4.85820313 1.40007812 -3.72265625 1.31640625 C-1.08890097 1.29581916 -1.08890097 1.29581916 0 0 Z " fill="#0D0F04" transform="translate(68,71)"/>
<path d="M0 0 C0.99 0.33 1.98 0.66 3 1 C1.63629701 3.99220268 0.05091917 6.29026529 -2.125 8.75 C-2.93324219 9.67039062 -2.93324219 9.67039062 -3.7578125 10.609375 C-4.16773437 11.06828125 -4.57765625 11.5271875 -5 12 C-5.33 11.34 -5.66 10.68 -6 10 C-4.78515625 7.6171875 -4.78515625 7.6171875 -3.0625 4.875 C-2.21365234 3.50988281 -2.21365234 3.50988281 -1.34765625 2.1171875 C-0.90292969 1.41851562 -0.45820312 0.71984375 0 0 Z " fill="#D2DF9B" transform="translate(104,96)"/>
<path d="M0 0 C0.99 1.32 1.98 2.64 3 4 C2.01 5.32 1.02 6.64 0 8 C-0.99 7.67 -1.98 7.34 -3 7 C-3.33 7.66 -3.66 8.32 -4 9 C-4.66 8.67 -5.32 8.34 -6 8 C-4.02 5.36 -2.04 2.72 0 0 Z " fill="#3D461D" transform="translate(107,97)"/>
<path d="M0 0 C2.4294516 3.6441774 2.16179575 5.71241272 2 10 C1.01 10 0.02 10 -1 10 C-2.25 3.375 -2.25 3.375 0 0 Z " fill="#ECF0CF" transform="translate(98,89)"/>
<path d="M0 0 C4.21686747 8.13253012 4.21686747 8.13253012 3 13 C0.525 9.04 0.525 9.04 -2 5 C-1.34 4.67 -0.68 4.34 0 4 C0 2.68 0 1.36 0 0 Z " fill="#E4ECB8" transform="translate(73,97)"/>
<path d="M0 0 C0.33 0.66 0.66 1.32 1 2 C-1.24187098 6.90409277 -5.15219004 10.34194505 -9 14 C-9 9.82438593 -7.16647522 8.46042213 -4.5 5.3125 C-3.6646875 4.31863281 -2.829375 3.32476562 -1.96875 2.30078125 C-0.99421875 1.16189453 -0.99421875 1.16189453 0 0 Z " fill="#C0D086" transform="translate(119,87)"/>
<path d="M0 0 C3.59309034 1.19769678 4.42093253 2.4676789 6.6875 5.4375 C7.31011719 6.24058594 7.93273437 7.04367188 8.57421875 7.87109375 C10 10 10 10 10 12 C6.60812721 10.58426179 4.90302459 8.95769034 2.75 6 C2.22921875 5.29875 1.7084375 4.5975 1.171875 3.875 C0 2 0 2 0 0 Z " fill="#B8CB7F" transform="translate(132,61)"/>
<path d="M0 0 C3.87511727 0.54984772 5.59576506 2.27555331 8.25 5.0625 C8.95640625 5.79597656 9.6628125 6.52945313 10.390625 7.28515625 C10.92171875 7.85105469 11.4528125 8.41695312 12 9 C11.67 9.66 11.34 10.32 11 11 C10.37351562 10.43410156 9.74703125 9.86820313 9.1015625 9.28515625 C8.28429688 8.55167969 7.46703125 7.81820312 6.625 7.0625 C5.40683594 5.96615234 5.40683594 5.96615234 4.1640625 4.84765625 C2.14075833 2.97010529 2.14075833 2.97010529 0 2 C0 1.34 0 0.68 0 0 Z " fill="#90A64E" transform="translate(27,75)"/>
<path d="M0 0 C-0.33 0.66 -0.66 1.32 -1 2 C-2.32 1.67 -3.64 1.34 -5 1 C-4.67 1.598125 -4.34 2.19625 -4 2.8125 C-3 5 -3 5 -3 8 C-6 7 -6 7 -7.6875 3.9375 C-8.120625 2.968125 -8.55375 1.99875 -9 1 C-5.8035914 -0.06546953 -3.34252724 -0.07427838 0 0 Z " fill="#434E20" transform="translate(129,60)"/>
<path d="M0 0 C3.63 0 7.26 0 11 0 C10.67 0.99 10.34 1.98 10 3 C10 2.34 10 1.68 10 1 C8.02 1.33 6.04 1.66 4 2 C4.33 3.32 4.66 4.64 5 6 C4.01 6 3.02 6 2 6 C1.34 4.02 0.68 2.04 0 0 Z " fill="#E6ECC3" transform="translate(56,76)"/>
<path d="M0 0 C1.65 0 3.3 0 5 0 C3.125 4.75 3.125 4.75 2 7 C1.01 7 0.02 7 -1 7 C-0.67 4.69 -0.34 2.38 0 0 Z " fill="#ECF3C4" transform="translate(40,61)"/>
<path d="M0 0 C3.82946843 1.45255699 5.12050295 3.42895561 7 7 C6.34 7 5.68 7 5 7 C5.33 7.99 5.66 8.98 6 10 C5.01 9.67 4.02 9.34 3 9 C2.4375 7.0625 2.4375 7.0625 2 5 C1.34 4.34 0.68 3.68 0 3 C0 2.01 0 1.02 0 0 Z " fill="#38401D" transform="translate(58,95)"/>
<path d="M0 0 C0.66 0.33 1.32 0.66 2 1 C-0.475 4.465 -0.475 4.465 -3 8 C-2.34 8.33 -1.68 8.66 -1 9 C-1.99 9.66 -2.98 10.32 -4 11 C-5 10 -5 10 -5.375 7.75 C-4.84916402 3.89386948 -2.85570359 2.49874064 0 0 Z " fill="#161A0A" transform="translate(30,65)"/>
<path d="M0 0 C0.99 0 1.98 0 3 0 C1.4169423 4.2742558 -1.50568404 6.26531794 -5 9 C-5 4.66314164 -2.91985986 3.0556673 0 0 Z " fill="#8BA04A" transform="translate(138,75)"/>
<path d="M0 0 C0.66 0.33 1.32 0.66 2 1 C1.67 2.98 1.34 4.96 1 7 C-0.65 7 -2.3 7 -4 7 C-3.39816251 4.97954558 -2.72693904 2.97888961 -2 1 C-1.34 0.67 -0.68 0.34 0 0 Z " fill="#F9FBED" transform="translate(51,64)"/>
<path d="M0 0 C0.33 0.66 0.66 1.32 1 2 C1.66 2 2.32 2 3 2 C3 2.99 3 3.98 3 5 C2.34 5 1.68 5 1 5 C0.67 5.99 0.34 6.98 0 8 C-0.66 7.67 -1.32 7.34 -2 7 C-1.125 2.25 -1.125 2.25 0 0 Z " fill="#FBFBEB" transform="translate(102,83)"/>
<path d="M0 0 C3.63 0 7.26 0 11 0 C10.67 1.65 10.34 3.3 10 5 C9.34 5 8.68 5 8 5 C8 3.68 8 2.36 8 1 C5.69 1 3.38 1 1 1 C0.67 1.66 0.34 2.32 0 3 C0 2.01 0 1.02 0 0 Z " fill="#F7FCD3" transform="translate(87,76)"/>
<path d="M0 0 C2 3 2 3 2 6 C4.64 6 7.28 6 10 6 C10 6.33 10 6.66 10 7 C6.7 7 3.4 7 0 7 C0 6.34 0 5.68 0 5 C-0.66 4.67 -1.32 4.34 -2 4 C-1.34 2.68 -0.68 1.36 0 0 Z " fill="#677040" transform="translate(42,66)"/>
<path d="M0 0 C2.64 0 5.28 0 8 0 C8 0.33 8 0.66 8 1 C5.69 1 3.38 1 1 1 C1.66 3.31 2.32 5.62 3 8 C2.01 8.33 1.02 8.66 0 9 C-0.84454356 5.62182575 -1.10844919 3.32534757 0 0 Z " fill="#56602C" transform="translate(112,60)"/>
<path d="M0 0 C0.66 0.33 1.32 0.66 2 1 C2 1.66 2 2.32 2 3 C2.99 3.33 3.98 3.66 5 4 C5 4.66 5 5.32 5 6 C3.68 6.33 2.36 6.66 1 7 C-0.0625 4.625 -0.0625 4.625 -1 2 C-0.67 1.34 -0.34 0.68 0 0 Z " fill="#414B22" transform="translate(39,81)"/>
<path d="M0 0 C2.97 0 5.94 0 9 0 C8.67 0.66 8.34 1.32 8 2 C6.68 1.67 5.36 1.34 4 1 C4.33 2.65 4.66 4.3 5 6 C3.31237149 4.3545622 1.6459651 2.68711423 0 1 C0 0.67 0 0.34 0 0 Z " fill="#E7F0BD" transform="translate(44,76)"/>
<path d="M0 0 C2.97 0 5.94 0 9 0 C8.67 2.64 8.34 5.28 8 8 C7.67 8 7.34 8 7 8 C7 6.35 7 4.7 7 3 C6.34 3 5.68 3 5 3 C5 2.34 5 1.68 5 1 C3.35 1 1.7 1 0 1 C0 0.67 0 0.34 0 0 Z " fill="#E3EEBB" transform="translate(60,61)"/>
<path d="M0 0 C-1.36944102 2.94956528 -2.87830409 5.52468811 -5 8 C-5.66 8 -6.32 8 -7 8 C-4.18918919 0 -4.18918919 0 0 0 Z " fill="#BFD18C" transform="translate(34,65)"/>
<path d="M0 0 C2.74277578 3.19990508 4.6302836 6.00499382 6 10 C5.236875 9.21625 4.47375 8.4325 3.6875 7.625 C1.09108195 4.92742283 1.09108195 4.92742283 -2 3 C-1 1 -1 1 0 0 Z " fill="#9BAC62" transform="translate(67,101)"/>
<path d="M0 0 C4.875 4.75 4.875 4.75 6 7 C4.68 7 3.36 7 2 7 C0 4 0 4 0 0 Z " fill="#282E11" transform="translate(134,66)"/>
<path d="M0 0 C2.31 0 4.62 0 7 0 C5.68 0.33 4.36 0.66 3 1 C3.33 2.65 3.66 4.3 4 6 C3.01 5.67 2.02 5.34 1 5 C0.67 3.35 0.34 1.7 0 0 Z " fill="#E7F1C2" transform="translate(113,61)"/>
<path d="M0 0 C4.875 4.625 4.875 4.625 6 8 C2.63279613 6.60667426 1.0140476 5.0210714 -1 2 C-0.67 1.34 -0.34 0.68 0 0 Z " fill="#232A0C" transform="translate(33,75)"/>
<path d="M0 0 C1.2077558 3.62326739 0.54311128 4.64146369 -1 8 C-1.99 8 -2.98 8 -4 8 C-3.67 6.68 -3.34 5.36 -3 4 C-2.67 4.33 -2.34 4.66 -2 5 C-1.34 3.35 -0.68 1.7 0 0 Z " fill="#F7F8D3" transform="translate(91,95)"/>
<path d="M0 0 C2.375 -0.1875 2.375 -0.1875 5 0 C5.66 0.99 6.32 1.98 7 3 C5.35 3.33 3.7 3.66 2 4 C1.34 2.68 0.68 1.36 0 0 Z " fill="#CBD999" transform="translate(34,75)"/>
<path d="M0 0 C0 0.99 0 1.98 0 3 C-3.63 2.67 -7.26 2.34 -11 2 C-11 1.67 -11 1.34 -11 1 C-3.375 0 -3.375 0 0 0 Z " fill="#020300" transform="translate(102,72)"/>
<path d="M0 0 C0.33 0.99 0.66 1.98 1 3 C3.01508358 3.73323796 3.01508358 3.73323796 5 4 C4 5 4 5 0.9375 5.0625 C-0.5165625 5.0315625 -0.5165625 5.0315625 -2 5 C-1.34 3.35 -0.68 1.7 0 0 Z " fill="#C3CF95" transform="translate(35,68)"/>
<path d="M0 0 C0.95904856 3.83619425 0.91892116 5.32431536 0 9 C-0.99 9 -1.98 9 -3 9 C-2.01 6.03 -1.02 3.06 0 0 Z " fill="#E3E9BC" transform="translate(59,62)"/>
<path d="M0 0 C0.75 1.6875 0.75 1.6875 1 4 C-0.9375 6.75 -0.9375 6.75 -3 9 C-3.75 7.3125 -3.75 7.3125 -4 5 C-2.0625 2.25 -2.0625 2.25 0 0 Z " fill="#242A10" transform="translate(35,64)"/>
<path d="M0 0 C0.99 0 1.98 0 3 0 C3 0.99 3 1.98 3 3 C2.01 2.67 1.02 2.34 0 2 C0 1.34 0 0.68 0 0 Z M-2 2 C-1.34 2 -0.68 2 0 2 C-0.33 3.32 -0.66 4.64 -1 6 C-1.66 5.67 -2.32 5.34 -3 5 C-2.67 4.01 -2.34 3.02 -2 2 Z " fill="#FAFDED" transform="translate(115,81)"/>
<path d="M0 0 C0.66 0.33 1.32 0.66 2 1 C0.68 3.31 -0.64 5.62 -2 8 C-2.33 8 -2.66 8 -3 8 C-3.36923077 3.44615385 -3.36923077 3.44615385 -1.5 1.1875 C-1.005 0.795625 -0.51 0.40375 0 0 Z " fill="#ECF0C4" transform="translate(109,79)"/>
<path d="" fill="#000000" transform="translate(0,0)"/>
<path d="" fill="#00FF00" transform="translate(0,0)"/>
<path d="" fill="#00FF00" transform="translate(0,0)"/>
<path d="" fill="#00FF00" transform="translate(0,0)"/>
<path d="" fill="#000000" transform="translate(0,0)"/>
<path d="" fill="#00FF00" transform="translate(0,0)"/>
<path d="" fill="#000000" transform="translate(0,0)"/>
<path d="" fill="#00FF00" transform="translate(0,0)"/>
<path d="" fill="#00FF00" transform="translate(0,0)"/>
<path d="" fill="#00FF00" transform="translate(0,0)"/>
<path d="" fill="#000000" transform="translate(0,0)"/>
<path d="" fill="#000000" transform="translate(0,0)"/>
<path d="" fill="#00FF00" transform="translate(0,0)"/>
<path d="" fill="#000000" transform="translate(0,0)"/>
<path d="" fill="#00FF00" transform="translate(0,0)"/>
<path d="" fill="#000000" transform="translate(0,0)"/>
<path d="" fill="#000000" transform="translate(0,0)"/>
<path d="" fill="#000000" transform="translate(0,0)"/>
<path d="" fill="#00FF00" transform="translate(0,0)"/>
<path d="" fill="#00FF00" transform="translate(0,0)"/>
<path d="" fill="#00FF00" transform="translate(0,0)"/>
<path d="" fill="#000000" transform="translate(0,0)"/>
<path d="" fill="#000000" transform="translate(0,0)"/>
<path d="" fill="#000000" transform="translate(0,0)"/>
<path d="" fill="#000000" transform="translate(0,0)"/>
<path d="" fill="#000000" transform="translate(0,0)"/>
<path d="" fill="#000000" transform="translate(0,0)"/>
<path d="" fill="#000000" transform="translate(0,0)"/>
<path d="" fill="#00FF00" transform="translate(0,0)"/>
<path d="" fill="#00FF00" transform="translate(0,0)"/>
<path d="" fill="#000000" transform="translate(0,0)"/>
<path d="" fill="#000000" transform="translate(0,0)"/>
<path d="" fill="#00FF00" transform="translate(0,0)"/>
<path d="" fill="#00FF00" transform="translate(0,0)"/>
<path d="" fill="#000000" transform="translate(0,0)"/>
<path d="" fill="#00FF00" transform="translate(0,0)"/>
<path d="" fill="#00FF00" transform="translate(0,0)"/>
<path d="" fill="#00FF00" transform="translate(0,0)"/>
<path d="" fill="#00FF00" transform="translate(0,0)"/>
<path d="" fill="#00FF00" transform="translate(0,0)"/>
<path d="" fill="#00FF00" transform="translate(0,0)"/>
<path d="" fill="#00FF00" transform="translate(0,0)"/>
<path d="" fill="#000000" transform="translate(0,0)"/>
<path d="" fill="#000000" transform="translate(0,0)"/>
<path d="" fill="#000000" transform="translate(0,0)"/>
<path d="" fill="#00FF00" transform="translate(0,0)"/>
<path d="" fill="#000000" transform="translate(0,0)"/>
<path d="" fill="#00FF00" transform="translate(0,0)"/>
<path d="" fill="#000000" transform="translate(0,0)"/>
<path d="" fill="#00FF00" transform="translate(0,0)"/>
<path d="" fill="#00FF00" transform="translate(0,0)"/>
<path d="" fill="#00FF00" transform="translate(0,0)"/>
<path d="" fill="#000000" transform="translate(0,0)"/>
<path d="" fill="#00FF00" transform="translate(0,0)"/>
<path d="" fill="#00FF00" transform="translate(0,0)"/>
<path d="" fill="#00FF00" transform="translate(0,0)"/>
<path d="" fill="#00FF00" transform="translate(0,0)"/>
<path d="" fill="#000000" transform="translate(0,0)"/>
<path d="" fill="#000000" transform="translate(0,0)"/>
<path d="" fill="#00FF00" transform="translate(0,0)"/>
<path d="" fill="#00FF00" transform="translate(0,0)"/>
<path d="" fill="#00FF00" transform="translate(0,0)"/>
<path d="" fill="#00FF00" transform="translate(0,0)"/>
<path d="" fill="#000000" transform="translate(0,0)"/>
<path d="" fill="#000000" transform="translate(0,0)"/>
<path d="" fill="#00FF00" transform="translate(0,0)"/>
<path d="" fill="#008000" transform="translate(0,0)"/>
<path d="" fill="#00FF00" transform="translate(0,0)"/>
<path d="" fill="#000000" transform="translate(0,0)"/>
<path d="" fill="#000000" transform="translate(0,0)"/>
<path d="" fill="#00FF00" transform="translate(0,0)"/>
<path d="" fill="#00FF00" transform="translate(0,0)"/>
<path d="" fill="#00FF00" transform="translate(0,0)"/>
<path d="" fill="#000000" transform="translate(0,0)"/>
<path d="" fill="#00FF00" transform="translate(0,0)"/>
<path d="" fill="#000000" transform="translate(0,0)"/>
<path d="" fill="#000000" transform="translate(0,0)"/>
<path d="" fill="#00FF00" transform="translate(0,0)"/>
<path d="" fill="#000000" transform="translate(0,0)"/>
<path d="" fill="#000000" transform="translate(0,0)"/>
<path d="" fill="#00FF00" transform="translate(0,0)"/>
<path d="" fill="#00FF00" transform="translate(0,0)"/>
<path d="" fill="#000000" transform="translate(0,0)"/>
<path d="" fill="#00FF00" transform="translate(0,0)"/>
<path d="" fill="#00FF00" transform="translate(0,0)"/>
<path d="" fill="#00FF00" transform="translate(0,0)"/>
<path d="" fill="#00FF00" transform="translate(0,0)"/>
<path d="" fill="#00FF00" transform="translate(0,0)"/>
<path d="" fill="#00FF00" transform="translate(0,0)"/>
<path d="" fill="#000000" transform="translate(0,0)"/>
<path d="" fill="#000000" transform="translate(0,0)"/>
<path d="" fill="#00FF00" transform="translate(0,0)"/>
<path d="" fill="#000000" transform="translate(0,0)"/>
<path d="" fill="#000000" transform="translate(0,0)"/>
<path d="" fill="#00FF00" transform="translate(0,0)"/>
<path d="" fill="#00FF00" transform="translate(0,0)"/>
<path d="" fill="#000000" transform="translate(0,0)"/>
<path d="" fill="#000000" transform="translate(0,0)"/>
<path d="" fill="#000000" transform="translate(0,0)"/>
<path d="" fill="#00FF00" transform="translate(0,0)"/>
<path d="" fill="#000000" transform="translate(0,0)"/>
<path d="" fill="#000000" transform="translate(0,0)"/>
<path d="" fill="#000000" transform="translate(0,0)"/>
<path d="" fill="#000000" transform="translate(0,0)"/>
<path d="" fill="#000000" transform="translate(0,0)"/>
<path d="" fill="#00FF00" transform="translate(0,0)"/>
<path d="" fill="#00FF00" transform="translate(0,0)"/>
<path d="" fill="#000000" transform="translate(0,0)"/>
<path d="" fill="#000000" transform="translate(0,0)"/>
<path d="" fill="#00FF00" transform="translate(0,0)"/>
<path d="" fill="#00FF00" transform="translate(0,0)"/>
<path d="" fill="#000000" transform="translate(0,0)"/>
<path d="" fill="#000000" transform="translate(0,0)"/>
<path d="" fill="#000000" transform="translate(0,0)"/>
<path d="" fill="#000000" transform="translate(0,0)"/>
<path d="" fill="#00FF00" transform="translate(0,0)"/>
<path d="" fill="#00FF00" transform="translate(0,0)"/>
<path d="" fill="#00FF00" transform="translate(0,0)"/>
<path d="" fill="#000000" transform="translate(0,0)"/>
<path d="" fill="#00FF00" transform="translate(0,0)"/>
<path d="" fill="#000000" transform="translate(0,0)"/>
<path d="" fill="#000000" transform="translate(0,0)"/>
<path d="" fill="#00FF00" transform="translate(0,0)"/>
<path d="" fill="#00FF00" transform="translate(0,0)"/>
<path d="" fill="#00FF00" transform="translate(0,0)"/>
<path d="" fill="#00FF00" transform="translate(0,0)"/>
</svg>
